# xmcd
#
# Track frame offsets: 
#        150
#        12777
#        18152
#        23027
#        30825
#        42905
#        48750
#        54900
#        64497
#        69450
#        82125
#        90372
#        96000
#        104405
#        111977
#        115725
#        120675
#        127055
#        133490
#        140702
#        149775
#        153455
#        159230
#        167555
#        175009
#        185062
#        197437
#        208612
#        217532
#        229987
#        242732
#        256080
#        268387
#        283317
#        286605
#        295680
#        304082
#        313897
#
# Disc length: 4318 seconds
#
# Revision: 1
# Processed by: cddbd v1.5.2PL0 Copyright (c) Steve Scherf et al.
# Submitted via: ExactAudioCopy v1.0b3
#
DISCID=2810dc26
DTITLE=Tom McDermott - All the Keys and Then Some
DYEAR=1996
DGENRE=Jazz
TTITLE0=Klezmer Nuthouse [d minor]
TTITLE1=Sweetly Awakened [D major]
TTITLE2=Lithuanian Stomp [e minor]
TTITLE3=Blue Buick [E-flat major]
TTITLE4=Lost Rio [g-sharp minor]
TTITLE5=The Murmur [G-flat major]
TTITLE6=Madame Zag [for Diane Wanek - f-sharp minor]
TTITLE7=Dance of the Networkers [for David Shelander - G major]
TTITLE8=The Thirst [c-sharp minor]
TTITLE9=Eva [A-flat major]
TTITLE10=Grunge Piano [g minor]
TTITLE11=The Irish Channel: 1850 [E major]
TTITLE12=Barcarolle [c minor]
TTITLE13=Rebennackin' [for Mac Rebennack - B-flat major]
TTITLE14=To Be Continued [e-flat minor]
TTITLE15=Choro [D-flat major]
TTITLE16=Pixilated [f minor]
TTITLE17=This Way and That [for Dick Hyman - C major]
TTITLE18=A Minor Tango [a minor]
TTITLE19=Frumba [F major]
TTITLE20=Frenchified [b minor]
TTITLE21=Waltz Looking East [B major]
TTITLE22=The Omnivore [b-flat minor]
TTITLE23=Dirty [A major]
TTITLE24=Andrew's Antics (for Andrew Fielding)
TTITLE25=Sayleing (for Mary Abbay Sayle)
TTITLE26=Heavy Henry (for Henry Butler)
TTITLE27=Valse Joe (for Joe Kline)
TTITLE28=Maxeesh (for Max Potts)
TTITLE29=Woogied (for Mike Bunis)
TTITLE30=For Brenda (for Benda Hearing)
TTITLE31=Martin's Mambo (for Martin Jones, M.D.)
TTITLE32=The Big Man (for David Thomas Roberts)
TTITLE33=The Elsie Dance (for Elsie Parker)
TTITLE34=Antonioverde (for Tony Green)
TTITLE35=Auteur, Auteur (for Ken Kwapis and Maris Silver)
TTITLE36=Fun Machine (for Brian Hohlfeld)
TTITLE37=Oak Street Afterthoughts (for Everett Maddox)
EXTD=YEAR: 1996
EXTT0=
EXTT1=
EXTT2=
EXTT3=
EXTT4=
EXTT5=
EXTT6=
EXTT7=
EXTT8=
EXTT9=
EXTT10=
EXTT11=
EXTT12=
EXTT13=
EXTT14=
EXTT15=
EXTT16=
EXTT17=
EXTT18=
EXTT19=
EXTT20=
EXTT21=
EXTT22=
EXTT23=
EXTT24=
EXTT25=
EXTT26=
EXTT27=
EXTT28=
EXTT29=
EXTT30=
EXTT31=
EXTT32=
EXTT33=
EXTT34=
EXTT35=
EXTT36=
EXTT37=
PLAYORDER=
